<svg xmlns="http://www.w3.org/2000/svg" version="1.1" xmlns:xlink="http://www.w3.org/1999/xlink" xmlns:svgjs="http://svgjs.dev/svgjs" viewBox="0 0 800 800"><defs><radialGradient id="ccclaymoji-grad-dark" r="93%" cx="20%" cy="20%">
      <stop offset="70%" stop-color="hsl(41, 100%, 67%)" stop-opacity="0"></stop>
      <stop offset="97%" stop-color="#c89924" stop-opacity="1"></stop>
    </radialGradient><radialGradient id="ccclaymoji-grad-light" r="65%" cx="28%" cy="20%">
    <stop offset="0%" stop-color="#fffd88" stop-opacity="0.75"></stop>
    <stop offset="100%" stop-color="hsl(41, 100%, 67%)" stop-opacity="0"></stop>
  </radialGradient><filter id="ccclaymoji-blur" x="-100%" y="-100%" width="400%" height="400%" filterUnits="objectBoundingBox" primitiveUnits="userSpaceOnUse" color-interpolation-filters="sRGB">
	<feGaussianBlur stdDeviation="30" x="0%" y="0%" width="100%" height="100%" in="SourceGraphic" edgeMode="none" result="blur"></feGaussianBlur></filter><filter id="inner-blur" x="-100%" y="-100%" width="400%" height="400%" filterUnits="objectBoundingBox" primitiveUnits="userSpaceOnUse" color-interpolation-filters="sRGB">
	<feGaussianBlur stdDeviation="2" x="0%" y="0%" width="100%" height="100%" in="SourceGraphic" edgeMode="none" result="blur"></feGaussianBlur></filter><filter id="eye-shadow" x="-100%" y="-100%" width="400%" height="400%" filterUnits="objectBoundingBox" primitiveUnits="userSpaceOnUse" color-interpolation-filters="sRGB">
	<feDropShadow stdDeviation="10" dx="10" dy="10" flood-color="#000000" flood-opacity="0.2" x="0%" y="0%" width="100%" height="100%" result="dropShadow"></feDropShadow>
</filter><linearGradient id="eye-light" x1="50%" y1="0%" x2="50%" y2="100%">
      <stop offset="0%" stop-color="#555555" stop-opacity="1"></stop>
      <stop offset="100%" stop-color="black" stop-opacity="0"></stop>
    </linearGradient><linearGradient id="mouth-light" x1="50%" y1="0%" x2="50%" y2="100%">
    <stop offset="0%" stop-color="#ff9667" stop-opacity="1"></stop>
    <stop offset="100%" stop-color="hsl(3, 100%, 51%)" stop-opacity="0"></stop>
  </linearGradient><filter id="mouth-shadow" x="-100%" y="-100%" width="400%" height="400%" filterUnits="objectBoundingBox" primitiveUnits="userSpaceOnUse" color-interpolation-filters="sRGB">
	<feDropShadow stdDeviation="10" dx="10" dy="10" flood-color="#c20000" flood-opacity="0.2" x="0%" y="0%" width="100%" height="100%" result="dropShadow"></feDropShadow>
</filter></defs><g stroke-linecap="round" transform="rotate(50, 400, 400)"><path d="M750 450.0000092128538C750 664.141518646816 614.1415094339623 837.7358582694576 400 837.7358582694576C185.85943396226415 837.7358582694576 50 664.141518646816 50 450.0000092128538C50 235.85944317511792 185.85943396226415 62.26416015625 400 62.26416015625C614.1415094339623 62.26416015625 750 235.85944317511792 750 450.0000092128538Z " fill="#c89924" opacity="0.25" filter="url(#ccclaymoji-blur)"></path><path d="M750.0000305175781 400.0000037386207C750.0000305175781 626.3433085819256 626.343335360883 730.0569837956008 400.0000305175781 730.0569837956008C173.6577228252704 730.0569837956008 50.000030517578125 626.3433085819256 50.000030517578125 400.0000037386207C50.000030517578125 173.657696046313 173.6577228252704 69.94302368164062 400.0000305175781 69.94302368164062C626.343335360883 69.94302368164062 750.0000305175781 173.657696046313 750.0000305175781 400.0000037386207Z " fill="hsl(41, 100%, 67%)"></path><path d="M750.0000305175781 400.0000037386207C750.0000305175781 626.3433085819256 626.343335360883 730.0569837956008 400.0000305175781 730.0569837956008C173.6577228252704 730.0569837956008 50.000030517578125 626.3433085819256 50.000030517578125 400.0000037386207C50.000030517578125 173.657696046313 173.6577228252704 69.94302368164062 400.0000305175781 69.94302368164062C626.343335360883 69.94302368164062 750.0000305175781 173.657696046313 750.0000305175781 400.0000037386207Z " fill="url(#ccclaymoji-grad-dark)"></path><path d="M750.0000305175781 400.0000037386207C750.0000305175781 626.3433085819256 626.343335360883 730.0569837956008 400.0000305175781 730.0569837956008C173.6577228252704 730.0569837956008 50.000030517578125 626.3433085819256 50.000030517578125 400.0000037386207C50.000030517578125 173.657696046313 173.6577228252704 69.94302368164062 400.0000305175781 69.94302368164062C626.343335360883 69.94302368164062 750.0000305175781 173.657696046313 750.0000305175781 400.0000037386207Z " fill="url(#ccclaymoji-grad-light)"></path><path d="M325 362.5Q375 412.5 375 362.5 " stroke-width="37" stroke="black" fill="none" filter="url(#eye-shadow)"></path><path d="M325 362.5Q375 412.5 375 362.5 " stroke-width="12.333333333333334" stroke="url(#eye-light)" fill="none" filter="url(#inner-blur)"></path><path d="M425 362.5Q475 412.5 475 362.5 " stroke-width="37" stroke="black" fill="none" filter="url(#eye-shadow)"></path><path d="M425 362.5Q475 412.5 475 362.5 " stroke-width="12.333333333333334" stroke="url(#eye-light)" fill="none" filter="url(#inner-blur)"></path><path d="M350 512.5Q400 562.5 450 512.5 " stroke-width="37" stroke="hsl(3, 100%, 51%)" fill="none" filter="url(#mouth-shadow)"></path><path d="M350 512.5Q400 562.5 450 512.5 " stroke-width="12.333333333333334" stroke="url(#mouth-light)" fill="none" filter="url(#inner-blur)"></path></g></svg>